<?xml version="1.0" encoding="UTF-8"?>
<svg width="42px" height="42px" viewBox="0 0 42 42" version="1.1" xmlns="http://www.w3.org/2000/svg" xmlns:xlink="http://www.w3.org/1999/xlink">
    <title>bullet</title>
    <g id="Home" stroke="none" stroke-width="1" fill="none" fill-rule="evenodd">
        <g id="bullet" transform="translate(0.750000, 0.750675)" fill-rule="nonzero">
            <path d="M0,20.25225 C0,31.43475 9.06525,40.5 20.25225,40.5 C31.4325,40.5 40.5,31.43475 40.5,20.25225 C40.5,9.0675 31.4325,0 20.25225,0 C9.06525,0 0,9.0675 0,20.25225 Z" id="Path" fill="#FFFFFF" transform="translate(20.250000, 20.250000) rotate(-90.000000) translate(-20.250000, -20.250000) "></path>
            <path d="M23.3602659,26.6925159 C22.8945159,27.1582659 22.2825159,27.3900159 21.6705159,27.3900159 C21.0607659,27.3900159 20.4465159,27.1582659 19.9807659,26.6925159 L10.7452064,17.8652882 C9.81145641,16.9315382 9.81145641,15.4195382 10.7452064,14.4857882 C11.6767064,13.5542882 13.1932064,13.5542882 14.1247064,14.4857882 L21.6705159,21.6232659 L28.7281463,14.4857882 C29.6596463,13.5542882 31.1761463,13.5542882 32.1076463,14.4857882 C33.0413963,15.4195382 33.0413963,16.9315382 32.1076463,17.8652882 L23.3602659,26.6925159 Z" id="Path" fill="#1A1A1C" transform="translate(21.426426, 20.588590) rotate(-90.000000) translate(-21.426426, -20.588590) "></path>
        </g>
    </g>
</svg>