<?xml version="1.0" encoding="UTF-8"?>
<svg width="16px" height="16px" viewBox="0 0 16 16" version="1.1" xmlns="http://www.w3.org/2000/svg" xmlns:xlink="http://www.w3.org/1999/xlink">
    <title>icon-close</title>
    <g id="Demo" stroke="none" stroke-width="1" fill="none" fill-rule="evenodd">
        <g id="icon-close" fill="#1A1A1C" fill-rule="nonzero">
            <path d="M0.382554408,0.382554408 C0.892626953,-0.127518136 1.71961795,-0.127518136 2.22969049,0.382554408 L8,6.153 L13.7703095,0.382554408 C14.2463772,-0.0935132998 14.9985161,-0.125251147 15.5113933,0.287340867 L15.6174456,0.382554408 C16.1275181,0.892626953 16.1275181,1.71961795 15.6174456,2.22969049 L9.847,8 L15.6174456,13.7703095 C16.0935133,14.2463772 16.1252511,14.9985161 15.7126591,15.5113933 L15.6174456,15.6174456 C15.107373,16.1275181 14.2803821,16.1275181 13.7703095,15.6174456 L8,9.847 L2.22969049,15.6174456 C1.75362278,16.0935133 1.00148389,16.1252511 0.488606693,15.7126591 L0.382554408,15.6174456 C-0.127518136,15.107373 -0.127518136,14.2803821 0.382554408,13.7703095 L6.153,8 L0.382554408,2.22969049 C-0.0935132998,1.75362278 -0.125251147,1.00148389 0.287340867,0.488606693 Z" id="Color"></path>
        </g>
    </g>
</svg>