<?xml version="1.0" encoding="UTF-8"?>
<svg width="20px" height="20px" viewBox="0 0 20 20" version="1.1" xmlns="http://www.w3.org/2000/svg" xmlns:xlink="http://www.w3.org/1999/xlink">
    <title>icon-facebook</title>
    <g id="Symbols" stroke="none" stroke-width="1" fill="none" fill-rule="evenodd">
        <g id="Desktop/Footer" transform="translate(-133.000000, -153.000000)" fill="#1A1A1C" fill-rule="nonzero">
            <g id="Group" transform="translate(131.000000, 46.000000)">
                <g id="icon-facebook" transform="translate(1.999722, 106.999944)">
                    <path d="M19.8144444,9.90722222 C19.8144444,4.43555556 15.3788889,0 9.90722222,0 C4.43555556,0 -2.22044605e-16,4.43555556 -2.22044605e-16,9.90722222 C-2.22044605e-16,14.8522222 3.62333333,18.9505556 8.35944444,19.6938889 L8.35944444,12.7711111 L5.84388889,12.7711111 L5.84388889,9.90722222 L8.35944444,9.90722222 L8.35944444,7.72444444 C8.35944444,5.24166667 9.83833333,3.87 12.1016667,3.87 C13.1855556,3.87 14.3188889,4.06333333 14.3188889,4.06333333 L14.3188889,6.50166667 L13.07,6.50166667 C11.8394444,6.50166667 11.4555556,7.26555556 11.4555556,8.04888889 L11.4555556,9.90722222 L14.2027778,9.90722222 L13.7638889,12.7711111 L11.4555556,12.7711111 L11.4555556,19.6938889 C16.1916667,18.9505556 19.8144444,14.8522222 19.8144444,9.90722222" id="Color"></path>
                </g>
            </g>
        </g>
    </g>
</svg>