<?xml version="1.0" encoding="UTF-8"?>
<svg width="18px" height="17px" viewBox="0 0 18 17" version="1.1" xmlns="http://www.w3.org/2000/svg" xmlns:xlink="http://www.w3.org/1999/xlink">
    <title>icon-menu</title>
    <g id="Symbols" stroke="none" stroke-width="1" fill="none" fill-rule="evenodd">
        <g id="Tablet/Menubar" transform="translate(-712.000000, -38.000000)" fill="#1A1A1C" fill-rule="nonzero">
            <g id="Right" transform="translate(697.000000, 23.000000)">
                <g id="icon-menu" transform="translate(15.000000, 15.000000)">
                    <path d="M18,15.7239998 L18,15.7239998 C18,15.0217315 17.4128449,14.4479996 16.6960808,14.4479996 L1.3039192,14.4479996 C0.586285217,14.4479996 0,15.0217315 0,15.7239998 C0,16.4254169 0.586285217,17 1.3039192,17 L16.6960808,17 C17.4128449,17 18,16.4254169 18,15.7239998 M18,8.50042562 L18,8.50042562 C18,7.79815733 17.4128449,7.22442542 16.6960808,7.22442542 L1.3039192,7.22442542 C0.586285217,7.22442542 0,7.79815733 0,8.50042562 C0,9.20184267 0.586285217,9.77642582 1.3039192,9.77642582 L16.6960808,9.77642582 C17.4128449,9.77642582 18,9.20184267 18,8.50042562 M16.6960808,2.5520004 L1.3039192,2.5520004 C0.586285217,2.5520004 0,1.97826849 0,1.2760002 C0,0.574583146 0.586285217,0 1.3039192,0 L16.6960808,0 C17.4128449,0 18,0.574583146 18,1.2760002 C18,1.97826849 17.4128449,2.5520004 16.6960808,2.5520004" id="Color"></path>
                </g>
            </g>
        </g>
    </g>
</svg>