<?xml version="1.0" encoding="UTF-8"?>
<svg width="22px" height="22px" viewBox="0 0 22 22" version="1.1" xmlns="http://www.w3.org/2000/svg" xmlns:xlink="http://www.w3.org/1999/xlink">
    <title>icon-instagram</title>
    <g id="Symbols" stroke="none" stroke-width="1" fill="none" fill-rule="evenodd">
        <g id="Desktop/Footer" transform="translate(-258.000000, -152.000000)" fill="#1A1A1C" fill-rule="nonzero">
            <g id="Group" transform="translate(131.000000, 46.000000)">
                <g id="icon-instagram" transform="translate(127.333600, 106.333067)">
                    <path d="M11.7624257,0.000816326531 C13.682449,0.00424489796 14.0891429,0.0194285714 15.064,0.064 C16.2,0.116 16.9746667,0.296 17.6533333,0.56 C18.3546667,0.833333333 18.9493333,1.19733333 19.5426667,1.79066667 C20.136,2.384 20.5,2.97866667 20.7733333,3.68 C21.036,4.35866667 21.2173333,5.13333333 21.2693333,6.26933333 C21.3120476,7.20357143 21.3277721,7.6160068 21.3320259,9.33863612 L21.3328856,9.81894309 C21.3329889,9.90434925 21.3330731,9.99253328 21.3331395,10.0836458 L21.3331395,11.2499339 C21.3330731,11.3410811 21.3329889,11.4292969 21.3328856,11.5147319 L21.3320259,11.9951792 C21.3277721,13.7182262 21.3120476,14.1297619 21.2693333,15.064 C21.2173333,16.2 21.036,16.9746667 20.7733333,17.6533333 C20.5,18.356 20.136,18.9506667 19.5426667,19.5426667 C18.9493333,20.136 18.3546667,20.5 17.6533333,20.7733333 C16.9746667,21.0373333 16.2,21.2173333 15.064,21.2693333 C14.1297619,21.3120476 13.7173265,21.3277721 11.9946972,21.3320259 L11.5143902,21.3328856 C11.4289841,21.3329889 11.3408,21.3330731 11.2496876,21.3331395 L10.0833989,21.3331395 C9.99225146,21.3330731 9.90403535,21.3329889 9.81859979,21.3328856 L9.33814656,21.3320259 C8.13948087,21.3290668 7.57541964,21.3205565 7.02822917,21.3012708 L6.82261704,21.2935234 C6.64992177,21.2866293 6.47133333,21.278619 6.268,21.2693333 C5.13333333,21.2173333 4.35866667,21.0373333 3.67866667,20.7733333 C2.97733333,20.5 2.38266667,20.136 1.78933333,19.5426667 C1.19733333,18.9506667 0.832,18.356 0.56,17.6533333 C0.296,16.9746667 0.116,16.2 0.064,15.064 C0.0194285714,14.0891429 0.00424489796,13.6834286 0.000816326531,11.7628455 L0.000816326531,9.57090768 C0.00424489796,7.65088435 0.0194285714,7.24419048 0.064,6.26933333 C0.116,5.13333333 0.296,4.35866667 0.56,3.68 C0.832,2.97866667 1.19733333,2.384 1.78933333,1.79066667 C2.38266667,1.19733333 2.97733333,0.833333333 3.67866667,0.56 C4.35866667,0.296 5.13333333,0.116 6.268,0.064 C7.244,0.0194285714 7.64987755,0.00424489796 9.57048397,0.000816326531 Z M11.4996865,1.9217794 L9.83364517,1.9217794 C7.73733503,1.92434864 7.3607619,1.9387619 6.356,1.984 C5.316,2.032 4.75066667,2.20533333 4.376,2.352 C3.87733333,2.54533333 3.52266667,2.776 3.14933333,3.14933333 C2.776,3.52266667 2.544,3.87866667 2.35066667,4.376 C2.20533333,4.752 2.03066667,5.316 1.984,6.35733333 C1.93757143,7.36090476 1.92409354,7.73735034 1.9217384,9.83364681 L1.9217384,11.4996882 C1.92409354,13.5959983 1.93757143,13.9725714 1.984,14.9773333 C2.03066667,16.0173333 2.20533333,16.5826667 2.35066667,16.9573333 C2.544,17.456 2.776,17.8106667 3.14933333,18.184 C3.52266667,18.5573333 3.87733333,18.788 4.376,18.9826667 C4.75066667,19.128 5.316,19.3026667 6.356,19.3493333 C6.55671429,19.358619 6.73238605,19.3665867 6.90177594,19.373411 L7.10322917,19.3810625 C7.67227381,19.40125 8.25544898,19.4090272 9.59012245,19.4112575 L10.3709758,19.4119578 L10.6666667,19.412 C10.768381,19.412 10.8668929,19.4119864 10.9623526,19.4119578 L11.743137,19.4112575 C13.0776122,19.4090272 13.6602381,19.40125 14.2289792,19.3810625 L14.4303364,19.373411 C14.5996565,19.3665867 14.7752857,19.358619 14.976,19.3493333 C16.016,19.3026667 16.5813333,19.128 16.9573333,18.9826667 C17.4546667,18.788 17.8106667,18.5573333 18.184,18.184 C18.5573333,17.8106667 18.788,17.456 18.9813333,16.9573333 C19.128,16.5826667 19.3013333,16.0173333 19.3493333,14.9773333 C19.3565714,14.8165714 19.3629932,14.6718912 19.3686842,14.5336754 L19.3766832,14.3299981 C19.4003455,13.6927595 19.4084837,13.0928839 19.4102632,11.4996882 L19.4102632,9.83364681 C19.4087647,8.49201707 19.4027569,7.85483825 19.3867666,7.30686449 L19.3802917,7.10435417 L19.3728167,6.9029969 C19.3661531,6.73367687 19.358381,6.55804762 19.3493333,6.35733333 C19.3013333,5.316 19.128,4.752 18.9813333,4.376 C18.788,3.87866667 18.5573333,3.52266667 18.184,3.14933333 C17.8106667,2.776 17.4546667,2.54533333 16.9573333,2.352 C16.5813333,2.20533333 16.016,2.032 14.976,1.984 C14.7752857,1.97495238 14.5996565,1.96713776 14.4303364,1.96040428 L14.2289792,1.95283333 C13.6267827,1.93161905 13.00902,1.92362925 11.4996865,1.9217794 Z M10.6666667,5.18933333 C13.692,5.18933333 16.144,7.64133333 16.144,10.6666667 C16.144,13.692 13.692,16.144 10.6666667,16.144 C7.64133333,16.144 5.18933333,13.692 5.18933333,10.6666667 C5.18933333,7.64133333 7.64133333,5.18933333 10.6666667,5.18933333 Z M10.6666667,7.112 C8.70266667,7.112 7.11066667,8.70266667 7.11066667,10.6666667 C7.11066667,12.6306667 8.70266667,14.2226667 10.6666667,14.2226667 C12.6306667,14.2226667 14.2226667,12.6306667 14.2226667,10.6666667 C14.2226667,8.70266667 12.6306667,7.112 10.6666667,7.112 Z M16.36,3.69266667 C17.0666667,3.69266667 17.64,4.266 17.64,4.97266667 C17.64,5.67933333 17.0666667,6.25266667 16.36,6.25266667 C15.6533333,6.25266667 15.08,5.67933333 15.08,4.97266667 C15.08,4.266 15.6533333,3.69266667 16.36,3.69266667 Z" id="Color"></path>
                </g>
            </g>
        </g>
    </g>
</svg>