<?xml version="1.0" encoding="UTF-8"?>
<svg width="13px" height="15px" viewBox="0 0 13 15" version="1.1" xmlns="http://www.w3.org/2000/svg" xmlns:xlink="http://www.w3.org/1999/xlink">
    <title>icon-apple</title>
    <g id="Symbols" stroke="none" stroke-width="1" fill="none" fill-rule="evenodd">
        <g id="Desktop/Footer" transform="translate(-530.000000, -187.000000)" fill="#1A1A1C" fill-rule="nonzero">
            <g id="Group" transform="translate(131.000000, 46.000000)">
                <g id="icon-apple" transform="translate(399.000000, 141.511162)">
                    <path d="M12.2667685,10.6474667 C11.9314796,11.3916444 11.7704796,11.7233556 11.3396129,12.3811556 C10.7370129,13.2991111 9.88856848,14.4424667 8.83670182,14.4516667 C7.90136848,14.4608667 7.66165737,13.8429333 6.3930796,13.8495778 C5.12450182,13.8567333 4.85974626,14.4629111 3.92492404,14.4543147 C2.87305737,14.4445111 2.06856848,13.4120667 1.4664796,12.4941111 C-0.217631515,9.92731111 -0.393964849,6.91482222 0.644612929,5.313 C1.38316848,4.17475556 2.5474796,3.50877778 3.6422796,3.50877778 C4.75752404,3.50877778 5.45825737,4.12108889 6.37979071,4.12108889 C7.27423515,4.12108889 7.81856848,3.50775556 9.10810182,3.50775556 C10.0822796,3.50775556 11.1142129,4.0388 11.8502129,4.95777778 C9.43981293,6.28002222 9.83132404,9.72593333 12.2667685,10.6474667 M8.33831737,2.32044444 C8.80649515,1.71835556 9.16222848,0.868888889 9.03342848,0 C8.26829515,0.0526444444 7.3733396,0.540244444 6.85098404,1.17555556 C6.37667293,1.75208889 5.98516182,2.60768889 6.13798404,3.43875556 C6.97262848,3.46482222 7.83691737,2.96495556 8.33831737,2.32044444" id="Combined-Shape"></path>
                </g>
            </g>
        </g>
    </g>
</svg>