<?xml version="1.0" encoding="UTF-8"?>
<svg width="14px" height="14px" viewBox="0 0 14 14" version="1.1" xmlns="http://www.w3.org/2000/svg" xmlns:xlink="http://www.w3.org/1999/xlink">
    <title>icon-google</title>
    <g id="Symbols" stroke="none" stroke-width="1" fill="none" fill-rule="evenodd">
        <g id="Desktop/Footer" transform="translate(-529.000000, -220.000000)" fill="#1A1A1C" fill-rule="nonzero">
            <g id="Group" transform="translate(131.000000, 46.000000)">
                <g id="icon-google" transform="translate(398.333333, 174.333333)">
                    <path d="M13.2050289,5.46334249 C11.0711707,5.4625772 8.93731256,5.46295985 6.80306719,5.46334249 C6.80345439,6.33768522 6.80190559,7.2124106 6.80345439,8.08675333 C8.03939619,8.08675333 9.275338,8.08637068 10.5108926,8.08675333 C10.3676287,8.92512747 9.86349451,9.69156445 9.14872366,10.1637478 C8.69957188,10.4622105 8.18304733,10.6558286 7.65103478,10.748046 C7.11515024,10.8383501 6.56184171,10.8498294 6.02750596,10.7430716 C5.48426463,10.6359311 4.96541688,10.4124667 4.5127803,10.096785 C3.78949104,9.59437274 3.23695691,8.85931262 2.95352665,8.03241781 C2.66351399,7.1909825 2.66157799,6.25465136 2.95468825,5.41436399 C3.15835535,4.82203027 3.49715519,4.27484861 3.94243497,3.82906774 C4.49148431,3.27385054 5.20509356,2.87666553 5.97407239,2.7140416 C6.63231207,2.57514164 7.32656134,2.60154411 7.97124903,2.79439695 C8.51913676,2.9589341 9.02443252,3.2554836 9.43796192,3.64578101 C9.85652492,3.23520344 10.2727647,2.82156471 10.6901661,2.41022185 C10.908934,2.18828803 11.1393179,1.97630297 11.3511162,1.74862948 C10.7172701,1.16892303 9.97384646,0.702862 9.16188845,0.408225719 C7.69982196,-0.123650166 6.05112515,-0.134746857 4.57937866,0.368813333 C2.92061466,0.929770201 1.50849694,2.1553806 0.725578922,3.70470827 C0.452603054,4.23849738 0.25358235,4.80863771 0.133937607,5.39446648 C-0.166916648,6.85502061 0.0429456511,8.41200117 0.724417322,9.74169088 C1.16737391,10.6099113 1.8023816,11.3817053 2.57290923,11.9866663 C3.29968328,12.5594851 4.14648927,12.9823073 5.04479284,13.2187816 C6.17812669,13.5191576 7.38464131,13.51227 8.52533196,13.2555155 C9.55605786,13.0209544 10.5318014,12.5342306 11.3104602,11.8236597 C12.133647,11.0759723 12.7210291,10.0910453 13.0319506,9.03265059 C13.3707504,7.87782942 13.4176016,6.64533142 13.2050289,5.46334249" id="Color"></path>
                </g>
            </g>
        </g>
    </g>
</svg>