<?xml version="1.0" encoding="UTF-8"?>
<svg width="22px" height="16px" viewBox="0 0 22 16" version="1.1" xmlns="http://www.w3.org/2000/svg" xmlns:xlink="http://www.w3.org/1999/xlink">
    <title>icon-youtube</title>
    <g id="Symbols" stroke="none" stroke-width="1" fill="none" fill-rule="evenodd">
        <g id="Desktop/Footer" transform="translate(-300.000000, -155.000000)" fill="#1A1A1C" fill-rule="nonzero">
            <g id="Group" transform="translate(131.000000, 46.000000)">
                <g id="icon-youtube" transform="translate(169.333333, 109.000000)">
                    <path d="M8.46459259,10.9510269 L8.46340741,4.55860979 L14.226963,7.76619273 L8.46459259,10.9510269 Z M21.12,3.45150079 C21.12,3.45150079 20.9114074,1.88436019 20.2725926,1.1943128 C19.4607407,0.286887836 18.5517037,0.283096367 18.1345185,0.230015798 C15.149037,0 10.6714074,0 10.6714074,0 L10.6619259,0 C10.6619259,0 6.1842963,0 3.19881481,0.230015798 C2.78162963,0.283096367 1.87259259,0.286887836 1.06074074,1.1943128 C0.421925926,1.88436019 0.213333333,3.45150079 0.213333333,3.45150079 C0.213333333,3.45150079 0,5.292891 0,7.13301738 L0,8.85939968 C0,10.7007899 0.213333333,12.5409163 0.213333333,12.5409163 C0.213333333,12.5409163 0.421925926,14.1093207 1.06074074,14.7993681 C1.87259259,15.7055292 2.93807407,15.6764613 3.41333333,15.771248 C5.12,15.9456556 10.6666667,16 10.6666667,16 C10.6666667,16 15.149037,15.9924171 18.1345185,15.7624013 C18.5517037,15.7093207 19.4607407,15.7055292 20.2725926,14.7993681 C20.9114074,14.1093207 21.12,12.5409163 21.12,12.5409163 C21.12,12.5409163 21.3333333,10.7007899 21.3333333,8.85939968 L21.3333333,7.13301738 C21.3333333,5.292891 21.12,3.45150079 21.12,3.45150079 L21.12,3.45150079 Z" id="Color"></path>
                </g>
            </g>
        </g>
    </g>
</svg>