<?xml version="1.0" encoding="UTF-8"?>
<svg width="47px" height="48px" viewBox="0 0 47 48" version="1.1" xmlns="http://www.w3.org/2000/svg" xmlns:xlink="http://www.w3.org/1999/xlink">
    <title>icon-feat</title>
    <defs>
        <linearGradient x1="0%" y1="3.69784963%" x2="100%" y2="3.69784963%" id="linearGradient-1">
            <stop stop-color="#90DC64" offset="0%"></stop>
            <stop stop-color="#0FCD9A" offset="100%"></stop>
        </linearGradient>
    </defs>
    <g id="Pricing" stroke="none" stroke-width="1" fill="none" fill-rule="evenodd">
        <g id="Pricing-(desktop)" transform="translate(-280.000000, -1203.000000)" fill="url(#linearGradient-1)" fill-rule="nonzero">
            <g id="Feat" transform="translate(280.000000, 1203.875000)">
                <path d="M23.5,42.9736143 C12.7616294,42.9736143 4.02638568,34.2383706 4.02638568,23.5 C4.02638568,12.7616294 12.7616294,4.02638568 23.5,4.02638568 C28.6638396,4.02638568 33.3525658,6.06172364 36.8414289,9.35329393 L22.3222822,28.6557869 L16.369271,20.7922556 C15.6988778,19.9064508 14.4366058,19.731303 13.550801,20.4037094 C12.662983,21.0741026 12.4878352,22.3363745 13.1602416,23.2221794 L20.7238071,33.2116423 C21.1043005,33.7149405 21.6961792,34.0108798 22.3283218,34.0108798 L22.3323482,34.0108798 C22.9624775,34.0088666 23.5563694,33.7109141 23.9368628,33.2076159 L39.5330678,12.4737428 C41.6992633,15.6102973 42.9736143,19.407179 42.9736143,23.5 C42.9736143,34.2383706 34.2383706,42.9736143 23.5,42.9736143 M40.757089,7.60382935 C40.7409835,7.589737 40.7329307,7.56960507 40.714812,7.55551272 C40.714812,7.55551272 40.7127988,7.55551272 40.7127988,7.55551272 C36.4186584,2.92114281 30.3005654,0 23.5,0 C10.5410777,0 0,10.5430909 0,23.5 C0,36.4589223 10.5410777,47 23.5,47 C36.4589223,47 47,36.4589223 47,23.5 C47,17.3678146 44.6183929,11.7932836 40.757089,7.60382935" id="icon-feat"></path>
            </g>
        </g>
    </g>
</svg>