<?xml version="1.0" encoding="UTF-8"?>
<svg width="42px" height="42px" viewBox="0 0 42 42" version="1.1" xmlns="http://www.w3.org/2000/svg" xmlns:xlink="http://www.w3.org/1999/xlink">
    <title>icon-arrow-L</title>
    <g id="Home" stroke="none" stroke-width="1" fill="none" fill-rule="evenodd">
        <g id="icon-arrow-L" transform="translate(21.000000, 21.000675) scale(-1, 1) translate(-21.000000, -21.000675) translate(0.750000, 0.750675)" fill="#1A1A1C" fill-rule="nonzero">
            <path d="M21.84525,27.5303527 C21.3795,27.9961027 20.7675,28.2278527 20.1555,28.2278527 C19.54575,28.2278527 18.9315,27.9961027 18.46575,27.5303527 L9.2301905,18.703125 C8.2964405,17.769375 8.2964405,16.257375 9.2301905,15.323625 C10.1616905,14.392125 11.6781905,14.392125 12.6096905,15.323625 L20.1555,22.4611027 L27.2131304,15.323625 C28.1446304,14.392125 29.6611304,14.392125 30.5926304,15.323625 C31.5263804,16.257375 31.5263804,17.769375 30.5926304,18.703125 L21.84525,27.5303527 Z M0,20.25225 C0,31.43475 9.06525,40.5 20.25225,40.5 C31.4325,40.5 40.5,31.43475 40.5,20.25225 C40.5,9.0675 31.4325,-4.54747351e-13 20.25225,-4.54747351e-13 C9.06525,-4.54747351e-13 0,9.0675 0,20.25225 Z" id="Color" transform="translate(20.250000, 20.250000) rotate(-90.000000) translate(-20.250000, -20.250000) "></path>
        </g>
    </g>
</svg>