<?xml version="1.0" encoding="UTF-8"?>
<svg width="21px" height="17px" viewBox="0 0 21 17" version="1.1" xmlns="http://www.w3.org/2000/svg" xmlns:xlink="http://www.w3.org/1999/xlink">
    <title>icon-twitter</title>
    <g id="Symbols" stroke="none" stroke-width="1" fill="none" fill-rule="evenodd">
        <g id="Desktop/Footer" transform="translate(-217.000000, -155.000000)" fill="#1A1A1C" fill-rule="nonzero">
            <g id="Group" transform="translate(131.000000, 46.000000)">
                <g id="icon-twitter" transform="translate(86.000000, 109.000000)">
                    <path d="M21,2.0123697 C20.227628,2.35369256 19.3969992,2.58456908 18.5256533,2.68815152 C19.4151653,2.15713552 20.0979597,1.31599618 20.419938,0.313867274 C19.5874299,0.805571869 18.6647178,1.16249449 17.683749,1.35530759 C16.8982222,0.521032154 15.7781888,0 14.5391361,0 C12.1600048,0 10.2306407,1.92126707 10.2306407,4.29180737 C10.2306407,4.62813831 10.2688522,4.95573337 10.3421429,5.26960065 C6.76154397,5.09051534 3.58686314,3.38202907 1.46205703,0.78560417 C1.09121823,1.41895463 0.878862904,2.15651153 0.878862904,2.94336368 C0.878862904,4.43220526 1.63933302,5.74570548 2.79507219,6.51508589 C2.08910035,6.49324622 1.42447202,6.29980913 0.843783558,5.97845397 C0.843157141,5.9965497 0.843157141,6.01464543 0.843157141,6.03211716 C0.843157141,8.11187784 2.3283916,9.84657172 4.29909915,10.2409338 C3.93828302,10.3389003 3.55742155,10.3913155 3.16403174,10.3913155 C2.88652905,10.3913155 2.61654337,10.3644839 2.35344828,10.3139407 C2.90218948,12.019307 4.49328839,13.2604243 6.37817683,13.2947438 C4.90421787,14.4460065 3.04626536,15.1317721 1.02795013,15.1317721 C0.680288748,15.1317721 0.33701229,15.1118044 0,15.071869 C1.90681303,16.2892747 4.17131011,17 6.60431333,17 C14.5291135,17 18.8626656,10.4612025 18.8626656,4.78912788 C18.8626656,4.60317868 18.8582806,4.41847746 18.8501372,4.23377624 C19.6920415,3.62912935 20.4224436,2.87285274 21,2.0123697" id="Color"></path>
                </g>
            </g>
        </g>
    </g>
</svg>