<?xml version="1.0" encoding="UTF-8"?>
<svg width="359px" height="745px" viewBox="0 0 359 745" version="1.1" xmlns="http://www.w3.org/2000/svg" xmlns:xlink="http://www.w3.org/1999/xlink">
    <title>phone-frame</title>
    <g id="Home" stroke="none" stroke-width="1" fill="none" fill-rule="evenodd">
        <g id="phone-frame" transform="translate(7.000000, 3.000000)">
            <path d="M58.9693596,4 L286.03064,4 C306.535571,4 313.971155,6.13498906 321.467451,10.1440522 C328.963747,14.1531153 334.846885,20.0362525 338.855948,27.5325488 C342.865011,35.0288451 345,42.4644286 345,62.9693596 L345,676.03064 C345,696.535571 342.865011,703.971155 338.855948,711.467451 C334.846885,718.963747 328.963747,724.846885 321.467451,728.855948 C313.971155,732.865011 306.535571,735 286.03064,735 L58.9693596,735 C38.4644286,735 31.0288451,732.865011 23.5325488,728.855948 C16.0362525,724.846885 10.1531153,718.963747 6.14405219,711.467451 C2.13498906,703.971155 -1.18474566e-15,696.535571 2.03904809e-15,676.03064 L1.58828847e-15,62.9693596 C-9.22841342e-16,42.4644286 2.13498906,35.0288451 6.14405219,27.5325488 C10.1531153,20.0362525 16.0362525,14.1531153 23.5325488,10.1440522 C31.0288451,6.13498906 38.4644286,4 58.9693596,4 Z" id="Rectangle" stroke="#000000" stroke-width="14"></path>
            <path d="M111,0 L235,0 L235,18 C235,27.3888407 227.388841,35 218,35 L128,35 C118.611159,35 111,27.3888407 111,18 L111,0 L111,0 Z" id="Rectangle" fill="#000000"></path>
        </g>
    </g>
</svg>